# xmcd
#
# Track frame offsets:
#	150
#	16702
#	34739
#	49428
#	68454
#	84971
#	100716
#	117324
#	135179
#	155564
#	168822
#	186811
#	202510
#	217041
#	229713
#
# Disc length: 3211
#
# Revision: 1
# Processed by: cddbd v1.5.1PL0 Copyright (c) Steve Scherf et al.
# Submitted via: VisiTrax 2.9.5.180 - For more info visit www.synapsa.com
# Normalized: r0:DSETVAR1
#
DISCID=b00c890f
DTITLE=Various Artist - CDX 283 January 2002
DYEAR=2002
DGENRE=
TTITLE0=Brad Martin - Before I knew better
TTITLE1=Shannon Lawson - Goodbye on a bad day
TTITLE2=Jeffrey Stelle - I can give you love like that
TTITLE3=Earl Thomas Conley - Love's the only voice
TTITLE4=Mindy McCready - Meybe, maybe not
TTITLE5=Reba McEntire - Sweet music man
TTITLE6=Gary Allan - The one
TTITLE7=Alabama - The woman he loves
TTITLE8=Tracy Lawrence - What a memory
TTITLE9=Trini Triggs - You never can tell
TTITLE10=Kenny Chesney - Young
TTITLE11=John Sines Jr - All she left me was alone
TTITLE12=Sonny Marshall - Lucky ole me
TTITLE13=Jeff Treece - Monkey song
TTITLE14=Tracy Lawrenece - The story behind the "What a memory"
EXTD=
EXTT0=
EXTT1=
EXTT2=
EXTT3=
EXTT4=
EXTT5=
EXTT6=
EXTT7=
EXTT8=
EXTT9=
EXTT10=
EXTT11=
EXTT12=
EXTT13=
EXTT14=
PLAYORDER=
